<svg width="15" height="18" viewBox="0 0 15 18" fill="none" xmlns="http://www.w3.org/2000/svg">
<g id="Group">
<path id="Vector" d="M7.98159 0L8.08423 0.00614112C8.28006 0.0292352 8.4624 0.117629 8.60184 0.257061C8.74127 0.396493 8.82966 0.578832 8.85276 0.774662L8.8589 0.877307V4.38653L8.86328 4.51813C8.89468 4.93588 9.0745 5.32861 9.37024 5.62532C9.66599 5.92203 10.0581 6.10313 10.4758 6.13589L10.6135 6.14115H14.1227L14.2254 6.14729C14.4212 6.17038 14.6036 6.25878 14.743 6.39821C14.8824 6.53764 14.9708 6.71998 14.9939 6.91581L15 7.01846V14.9142C15.0001 15.5855 14.7436 16.2315 14.283 16.7199C13.8225 17.2084 13.1927 17.5024 12.5225 17.5418L12.3681 17.5461H3.59506C2.92373 17.5462 2.27777 17.2897 1.78933 16.8291C1.30089 16.3686 1.00691 15.7388 0.967521 15.0686L0.963135 14.9142V2.63192C0.963097 1.9606 1.21959 1.31463 1.68014 0.826194C2.14069 0.337757 2.77048 0.043771 3.44065 0.00438664L3.59506 0H7.98159Z" fill="#AEB9E1"/>
<path id="Vector_2" d="M14.1227 4.38657H10.6134L10.6125 0.876465L14.1227 4.38657Z" fill="#AEB9E1"/>
</g>
</svg>
