<svg width="16" height="18" viewBox="0 0 16 18" fill="none" xmlns="http://www.w3.org/2000/svg">
<path id="Vector" d="M7.61108 0L0.111084 3.27273V8.18182C0.111084 12.7227 3.31108 16.9691 7.61108 18C11.9111 16.9691 15.1111 12.7227 15.1111 8.18182V3.27273L7.61108 0ZM7.61108 4.90909C8.77775 4.90909 9.94442 5.80909 9.94442 6.95455V8.18182C10.4444 8.18182 10.9444 8.67273 10.9444 9.24545V12.1091C10.9444 12.6 10.4444 13.0909 9.86108 13.0909H5.27775C4.77775 13.0909 4.27775 12.6 4.27775 12.0273V9.16364C4.27775 8.67273 4.77775 8.18182 5.27775 8.18182V6.95455C5.27775 5.80909 6.44442 4.90909 7.61108 4.90909ZM7.61108 5.89091C6.94442 5.89091 6.36108 6.3 6.36108 6.95455V8.18182H8.86108V6.95455C8.86108 6.3 8.27775 5.89091 7.61108 5.89091Z" fill="#AEB9E1"/>
</svg>
