<svg width="13" height="13" viewBox="0 0 13 13" fill="none" xmlns="http://www.w3.org/2000/svg">
<path id="Vector" d="M1.00964 0.0755763C0.458025 -0.200214 -0.153485 0.324437 0.0350292 0.911768L1.36206 5.03608C1.38815 5.11716 1.43604 5.1895 1.50049 5.24519C1.56494 5.30087 1.64346 5.33776 1.72748 5.3518L7.23849 6.27064C7.49711 6.31382 7.49711 6.68525 7.23849 6.72843L1.72794 7.6468C1.64385 7.66077 1.56522 7.69762 1.50068 7.75331C1.43614 7.809 1.38818 7.88138 1.36206 7.96252L0.0350292 12.0882C-0.153949 12.6756 0.45756 13.2002 1.00964 12.9244L12.6148 7.12308C13.1284 6.86633 13.1284 6.13414 12.6148 5.87692L1.00964 0.0755763Z" fill="white"/>
</svg>
