<svg width="15" height="14" viewBox="0 0 15 14" fill="none" xmlns="http://www.w3.org/2000/svg">
<g id="Custome Icon/Settings Icon">
<path id="Subtract" fill-rule="evenodd" clip-rule="evenodd" d="M6.2187 0C5.94256 0 5.7187 0.223857 5.7187 0.5V3.11548L3.45565 1.80863C3.21652 1.67054 2.91075 1.75247 2.7727 1.99163L1.03054 5.00976C0.892493 5.24892 0.974438 5.55475 1.21357 5.69284L3.47663 6.99969L1.21346 8.3066C0.974329 8.44469 0.892384 8.75052 1.03043 8.98968L2.77259 12.0078C2.91064 12.247 3.21641 12.3289 3.45554 12.1908L5.7187 10.8839V13.5C5.7187 13.7761 5.94256 14 6.2187 14H9.70286C9.979 14 10.2029 13.7761 10.2029 13.5V10.8839L12.4694 12.1928C12.7085 12.3309 13.0143 12.2489 13.1524 12.0098L14.8945 8.99163C15.0326 8.75247 14.9506 8.44665 14.7115 8.30855L12.4449 6.99969L14.7114 5.69088C14.9505 5.55279 15.0325 5.24697 14.8944 5.00781L13.1523 1.98968C13.0142 1.75052 12.7084 1.66859 12.4693 1.80668L10.2029 3.11549V0.5C10.2029 0.223858 9.979 0 9.70286 0H6.2187ZM7.96221 8.87256C8.99631 8.87256 9.83462 8.03408 9.83462 6.99976C9.83462 5.96544 8.99631 5.12695 7.96221 5.12695C6.9281 5.12695 6.0898 5.96544 6.0898 6.99976C6.0898 8.03408 6.9281 8.87256 7.96221 8.87256Z" fill="#AEB9E1"/>
</g>
</svg>
