<svg width="60" height="53" viewBox="0 0 60 53" fill="none" xmlns="http://www.w3.org/2000/svg">
<path id="Vector" d="M45.5172 43.8273C44.6988 43.8273 43.8988 43.5882 43.2183 43.1403C42.5378 42.6923 42.0075 42.0556 41.6943 41.3107C41.3811 40.5658 41.2992 39.7461 41.4588 38.9553C41.6185 38.1645 42.0126 37.4381 42.5913 36.8679C43.17 36.2978 43.9073 35.9095 44.71 35.7522C45.5126 35.5949 46.3447 35.6756 47.1008 35.9842C47.8569 36.2927 48.5031 36.8153 48.9578 37.4857C49.4125 38.1561 49.6552 38.9443 49.6552 39.7506C49.6552 40.8318 49.2192 41.8688 48.4432 42.6333C47.6672 43.3978 46.6147 43.8273 45.5172 43.8273ZM54.8276 26.5012H43.4483C42.6252 26.5012 41.8358 26.8233 41.2538 27.3967C40.6718 27.9701 40.3448 28.7478 40.3448 29.5588C40.3448 30.3697 40.6718 31.1474 41.2538 31.7208C41.8358 32.2942 42.6252 32.6163 43.4483 32.6163H53.7931V46.8849H6.2069V32.6163H16.5517C17.3748 32.6163 18.1642 32.2942 18.7462 31.7208C19.3282 31.1474 19.6552 30.3697 19.6552 29.5588C19.6552 28.7478 19.3282 27.9701 18.7462 27.3967C18.1642 26.8233 17.3748 26.5012 16.5517 26.5012H5.17241C3.8006 26.5012 2.48498 27.0381 1.51496 27.9938C0.544949 28.9494 0 30.2456 0 31.5971V47.9041C0 49.2556 0.544949 50.5518 1.51496 51.5074C2.48498 52.4631 3.8006 53 5.17241 53H54.8276C56.1994 53 57.515 52.4631 58.485 51.5074C59.455 50.5518 60 49.2556 60 47.9041V31.5971C60 30.2456 59.455 28.9494 58.485 27.9938C57.515 27.0381 56.1994 26.5012 54.8276 26.5012ZM19.7819 17.4534L26.8966 10.4491V29.5588C26.8966 30.3697 27.2235 31.1474 27.8055 31.7208C28.3875 32.2942 29.1769 32.6163 30 32.6163C30.8231 32.6163 31.6125 32.2942 32.1945 31.7208C32.7765 31.1474 33.1034 30.3697 33.1034 29.5588V10.4491L40.2181 17.461C40.5068 17.7455 40.8495 17.9711 41.2267 18.125C41.6039 18.2789 42.0081 18.3581 42.4164 18.3581C42.8246 18.3581 43.2289 18.2789 43.6061 18.125C43.9833 17.9711 44.326 17.7455 44.6147 17.461C44.9033 17.1766 45.1323 16.839 45.2886 16.4674C45.4448 16.0958 45.5252 15.6975 45.5252 15.2953C45.5252 14.8931 45.4448 14.4948 45.2886 14.1232C45.1323 13.7516 44.9033 13.4139 44.6147 13.1295L32.2009 0.899293C31.9125 0.614248 31.5699 0.38808 31.1927 0.233759C30.8155 0.0794381 30.411 0 30.0026 0C29.5941 0 29.1897 0.0794381 28.8125 0.233759C28.4352 0.38808 28.0926 0.614248 27.8043 0.899293L15.3905 13.1295C15.1018 13.4139 14.8728 13.7516 14.7166 14.1232C14.5604 14.4948 14.48 14.8931 14.48 15.2953C14.48 16.1076 14.8075 16.8866 15.3905 17.461C15.9735 18.0354 16.7643 18.3581 17.5888 18.3581C18.4133 18.3581 19.2041 18.0354 19.7871 17.461L19.7819 17.4534Z" fill="#21C3FC"/>
</svg>
